<svg width="32" height="32" viewBox="0 0 32 32" fill="none" xmlns="http://www.w3.org/2000/svg">
<path d="M21.0814 17.4604L23.9945 18.0385C24.0968 19.6755 25.5068 20.9194 27.1438 20.817C28.7807 20.7147 30.0247 19.3047 29.9223 17.6678C29.82 16.0308 28.41 14.7869 26.773 14.8892C25.7118 14.9556 24.7671 15.5842 24.296 16.5375L21.2815 15.9393C21.2489 14.7974 20.807 13.7054 20.0366 12.8619L24.1002 7.12159C25.9819 7.9377 28.1688 7.07383 28.9849 5.19222C29.8009 3.31062 28.9371 1.12357 27.0555 0.307549C25.1739 -0.508477 22.9869 0.355316 22.1708 2.23692C21.5853 3.58704 21.8522 5.15548 22.8513 6.23591L18.8359 11.9083C16.9148 10.8301 14.5054 11.2073 13.0057 12.8209L7.74386 8.73458C8.43863 7.24507 7.79431 5.47446 6.30487 4.77969C4.81535 4.08492 3.04475 4.72924 2.34998 6.21868C1.65521 7.7082 2.29953 9.47881 3.78897 10.1736C4.75526 10.6243 5.88889 10.5236 6.76065 9.90955L12.1512 14.0958C11.2853 15.9871 11.7438 18.2215 13.2848 19.6187L10.0558 24.1853C8.1495 23.1226 5.74261 23.8063 4.67986 25.7126C3.61711 27.6188 4.30086 30.0257 6.20711 31.0885C8.11337 32.1512 10.5203 31.4675 11.583 29.5612C12.3622 28.1636 12.2217 26.434 11.227 25.1805L14.5683 20.4547C15.7326 20.9711 17.0551 21.0002 18.2409 20.5354L22.2353 26.4361C21.0138 27.8273 21.1514 29.9453 22.5426 31.1667C23.9338 32.3882 26.0518 32.2506 27.2732 30.8594C28.4947 29.4682 28.3571 27.3502 26.9659 26.1288C26.0094 25.2889 24.6596 25.0633 23.4819 25.5465L19.5611 19.7545C20.2811 19.1547 20.8097 18.3572 21.0814 17.4604ZM26.957 16.4144C27.7511 16.4144 28.3949 17.0582 28.3949 17.8523C28.3949 18.6465 27.7511 19.2903 26.957 19.2903C26.1628 19.2903 25.5191 18.6465 25.5191 17.8523C25.5197 17.0584 26.1632 16.415 26.957 16.4144ZM25.5678 1.54904C26.7677 1.54912 27.7404 2.52184 27.7403 3.72169C27.7402 4.92154 26.7675 5.89426 25.5677 5.89419C24.3678 5.89411 23.3952 4.92146 23.3952 3.72161C23.3966 2.52222 24.3685 1.55034 25.5678 1.54904ZM5.05228 8.92106C4.25853 8.92014 3.61528 8.27689 3.61436 7.48314C3.61436 6.68901 4.25814 6.04522 5.05228 6.04522C5.84641 6.04522 6.4902 6.68901 6.4902 7.48314C6.4902 8.27727 5.84649 8.92106 5.05228 8.92106ZM8.14139 30.0381C6.81033 30.038 5.73135 28.959 5.73143 27.628C5.73151 26.2969 6.81048 25.2179 8.14154 25.218C9.47252 25.2181 10.5515 26.2971 10.5515 27.628C10.55 28.9585 9.47183 30.0366 8.14139 30.0381ZM24.7536 26.8269C25.7621 26.828 26.5793 27.6452 26.5804 28.6536C26.5804 29.6626 25.7626 30.4804 24.7536 30.4804C23.7447 30.4804 22.9268 29.6626 22.9268 28.6536C22.9268 27.6447 23.7448 26.8269 24.7536 26.8269ZM16.5014 19.3334C14.7059 19.3314 13.2508 17.8764 13.2488 16.0809C13.2488 14.2846 14.705 12.8283 16.5014 12.8283C18.2977 12.8283 19.7539 14.2846 19.7539 16.0809C19.7539 17.8772 18.2977 19.3334 16.5014 19.3334Z" fill="white"/>
</svg>
