<svg width="32" height="32" viewBox="0 0 32 32" fill="none" xmlns="http://www.w3.org/2000/svg">
<g clip-path="url(#clip0_18_1240)">
<path d="M12.25 22.625H11C9.7937 22.625 8.8125 23.6062 8.8125 24.8125V29.8125C8.8125 31.0188 9.7937 32 11 32H12.25C13.4563 32 14.4375 31.0188 14.4375 29.8125V24.8125C14.4375 23.6062 13.4563 22.625 12.25 22.625ZM12.5625 29.8125C12.5625 29.9849 12.4224 30.125 12.25 30.125H11C10.8276 30.125 10.6875 29.9849 10.6875 29.8125V24.8125C10.6875 24.6401 10.8276 24.5 11 24.5H12.25C12.4224 24.5 12.5625 24.6401 12.5625 24.8125V29.8125Z" fill="white"/>
<path d="M4.75 30.125H3.8125V23.5625C3.8125 23.0447 3.39282 22.625 2.875 22.625H1C0.482178 22.625 0.0625 23.0447 0.0625 23.5625C0.0625 24.0803 0.482178 24.5 1 24.5H1.9375V30.125H1C0.482178 30.125 0.0625 30.5447 0.0625 31.0625C0.0625 31.5803 0.482178 32 1 32H4.75C5.26782 32 5.6875 31.5803 5.6875 31.0625C5.6875 30.5447 5.26782 30.125 4.75 30.125Z" fill="white"/>
<path d="M29.75 22.625H28.5C27.2937 22.625 26.3125 23.6062 26.3125 24.8125V29.8125C26.3125 31.0188 27.2937 32 28.5 32H29.75C30.9563 32 31.9375 31.0188 31.9375 29.8125V24.8125C31.9375 23.6062 30.9563 22.625 29.75 22.625ZM30.0625 29.8125C30.0625 29.9849 29.9224 30.125 29.75 30.125H28.5C28.3276 30.125 28.1875 29.9849 28.1875 29.8125V24.8125C28.1875 24.6401 28.3276 24.5 28.5 24.5H29.75C29.9224 24.5 30.0625 24.6401 30.0625 24.8125V29.8125Z" fill="white"/>
<path d="M22.25 30.125H21.3125V23.5625C21.3125 23.0447 20.8928 22.625 20.375 22.625H18.5C17.9822 22.625 17.5625 23.0447 17.5625 23.5625C17.5625 24.0803 17.9822 24.5 18.5 24.5H19.4375V30.125H18.5C17.9822 30.125 17.5625 30.5447 17.5625 31.0625C17.5625 31.5803 17.9822 32 18.5 32H22.25C22.7678 32 23.1875 31.5803 23.1875 31.0625C23.1875 30.5447 22.7678 30.125 22.25 30.125Z" fill="white"/>
<path d="M12.25 11.3125H11C9.7937 11.3125 8.8125 12.2937 8.8125 13.5V18.5C8.8125 19.7063 9.7937 20.6875 11 20.6875H12.25C13.4563 20.6875 14.4375 19.7063 14.4375 18.5V13.5C14.4375 12.2937 13.4563 11.3125 12.25 11.3125ZM12.5625 18.5C12.5625 18.6724 12.4224 18.8125 12.25 18.8125H11C10.8276 18.8125 10.6875 18.6724 10.6875 18.5V13.5C10.6875 13.3276 10.8276 13.1875 11 13.1875H12.25C12.4224 13.1875 12.5625 13.3276 12.5625 13.5V18.5Z" fill="white"/>
<path d="M4.75 18.8125H3.8125V12.25C3.8125 11.7322 3.39282 11.3125 2.875 11.3125H1C0.482178 11.3125 0.0625 11.7322 0.0625 12.25C0.0625 12.7678 0.482178 13.1875 1 13.1875H1.9375V18.8125H1C0.482178 18.8125 0.0625 19.2322 0.0625 19.75C0.0625 20.2678 0.482178 20.6875 1 20.6875H4.75C5.26782 20.6875 5.6875 20.2678 5.6875 19.75C5.6875 19.2322 5.26782 18.8125 4.75 18.8125Z" fill="white"/>
<path d="M21 11.3125H19.75C18.5437 11.3125 17.5625 12.2937 17.5625 13.5V18.5C17.5625 19.7063 18.5437 20.6875 19.75 20.6875H21C22.2063 20.6875 23.1875 19.7063 23.1875 18.5V13.5C23.1875 12.2937 22.2063 11.3125 21 11.3125ZM21.3125 18.5C21.3125 18.6724 21.1724 18.8125 21 18.8125H19.75C19.5776 18.8125 19.4375 18.6724 19.4375 18.5V13.5C19.4375 13.3276 19.5776 13.1875 19.75 13.1875H21C21.1724 13.1875 21.3125 13.3276 21.3125 13.5V18.5Z" fill="white"/>
<path d="M31 18.8125H30.0625V12.25C30.0625 11.7322 29.6428 11.3125 29.125 11.3125H27.25C26.7322 11.3125 26.3125 11.7322 26.3125 12.25C26.3125 12.7678 26.7322 13.1875 27.25 13.1875H28.1875V18.8125H27.25C26.7322 18.8125 26.3125 19.2322 26.3125 19.75C26.3125 20.2678 26.7322 20.6875 27.25 20.6875H31C31.5178 20.6875 31.9375 20.2678 31.9375 19.75C31.9375 19.2322 31.5178 18.8125 31 18.8125Z" fill="white"/>
<path d="M3.5 0H2.25C1.0437 0 0.0625 0.981201 0.0625 2.1875V7.1875C0.0625 8.3938 1.0437 9.375 2.25 9.375H3.5C4.7063 9.375 5.6875 8.3938 5.6875 7.1875V2.1875C5.6875 0.981201 4.7063 0 3.5 0ZM3.8125 7.1875C3.8125 7.35986 3.67236 7.5 3.5 7.5H2.25C2.07764 7.5 1.9375 7.35986 1.9375 7.1875V2.1875C1.9375 2.01514 2.07764 1.875 2.25 1.875H3.5C3.67236 1.875 3.8125 2.01514 3.8125 2.1875V7.1875Z" fill="white"/>
<path d="M13.5 7.5H12.5625V0.9375C12.5625 0.419678 12.1428 0 11.625 0H9.75C9.23218 0 8.8125 0.419678 8.8125 0.9375C8.8125 1.45532 9.23218 1.875 9.75 1.875H10.6875V7.5H9.75C9.23218 7.5 8.8125 7.91968 8.8125 8.4375C8.8125 8.95532 9.23218 9.375 9.75 9.375H13.5C14.0178 9.375 14.4375 8.95532 14.4375 8.4375C14.4375 7.91968 14.0178 7.5 13.5 7.5Z" fill="white"/>
<path d="M29.75 0H28.5C27.2937 0 26.3125 0.981201 26.3125 2.1875V7.1875C26.3125 8.3938 27.2937 9.375 28.5 9.375H29.75C30.9563 9.375 31.9375 8.3938 31.9375 7.1875V2.1875C31.9375 0.981201 30.9563 0 29.75 0ZM30.0625 7.1875C30.0625 7.35986 29.9224 7.5 29.75 7.5H28.5C28.3276 7.5 28.1875 7.35986 28.1875 7.1875V2.1875C28.1875 2.01514 28.3276 1.875 28.5 1.875H29.75C29.9224 1.875 30.0625 2.01514 30.0625 2.1875V7.1875Z" fill="white"/>
<path d="M22.25 7.5H21.3125V0.9375C21.3125 0.419678 20.8928 0 20.375 0H18.5C17.9822 0 17.5625 0.419678 17.5625 0.9375C17.5625 1.45532 17.9822 1.875 18.5 1.875H19.4375V7.5H18.5C17.9822 7.5 17.5625 7.91968 17.5625 8.4375C17.5625 8.95532 17.9822 9.375 18.5 9.375H22.25C22.7678 9.375 23.1875 8.95532 23.1875 8.4375C23.1875 7.91968 22.7678 7.5 22.25 7.5Z" fill="white"/>
</g>
<defs>
<clipPath id="clip0_18_1240">
<rect width="32" height="32" fill="white"/>
</clipPath>
</defs>
</svg>
