<svg width="32" height="32" viewBox="0 0 32 32" fill="none" xmlns="http://www.w3.org/2000/svg">
<path d="M27.118 15.8027H31.0625C31.5802 15.8027 32 15.383 32 14.8652C32 14.3475 31.5802 13.9277 31.0625 13.9277H27.4907C27.9399 11.0954 27.7315 9.17949 27.7196 9.07624C27.6771 8.70574 27.4191 8.39574 27.0625 8.28668C25.6379 7.85086 24.3966 7.40824 23.3167 6.97449V4.65674H26.5362C26.9232 5.74793 27.9653 6.53174 29.1875 6.53174C30.7383 6.53174 32 5.27005 32 3.71924C32 2.16843 30.7383 0.906738 29.1875 0.906738C27.9653 0.906738 26.9232 1.69055 26.5362 2.78174H22.3792C21.8614 2.78174 21.4417 3.20149 21.4417 3.71924V6.15899C17.9669 4.51843 16.8149 3.1728 16.7455 3.08886C16.3712 2.57355 15.6291 2.57305 15.2545 3.08886C15.1852 3.1728 14.0331 4.51843 10.5583 6.15899V3.71924C10.5583 3.20149 10.1386 2.78174 9.62081 2.78174H5.46375C5.07675 1.69055 4.03469 0.906738 2.8125 0.906738C1.26169 0.906738 0 2.16843 0 3.71924C0 5.27005 1.26169 6.53174 2.8125 6.53174C4.03469 6.53174 5.07675 5.74793 5.46375 4.65674H8.68331V6.97449C7.60344 7.40824 6.36219 7.85086 4.9375 8.28668C4.58094 8.39574 4.32288 8.70574 4.28038 9.07624C4.2685 9.17949 4.06013 11.0954 4.50931 13.9277H0.9375C0.41975 13.9277 0 14.3475 0 14.8652C0 15.383 0.41975 15.8027 0.9375 15.8027H4.882C5.09031 16.6737 5.337 17.5056 5.64469 18.3681H3.06938C2.55163 18.3681 2.13188 18.7879 2.13188 19.3056C2.13188 19.8234 2.55163 20.2431 3.06938 20.2431H6.4015C7.20913 22.0287 8.19719 23.6591 9.37687 25.1851H5.46375C5.07675 24.0939 4.03469 23.3101 2.8125 23.3101C1.26169 23.3101 0 24.5717 0 26.1226C0 27.6734 1.26169 28.9351 2.8125 28.9351C4.03469 28.9351 5.07675 28.1512 5.46375 27.0601H10.9758C12.2963 28.4681 13.7957 29.7612 15.4636 30.9247C15.7858 31.1496 16.2142 31.1496 16.5364 30.9247C18.2043 29.7612 19.7037 28.4681 21.0242 27.0601H26.5362C26.9232 28.1512 27.9653 28.9351 29.1875 28.9351C30.7383 28.9351 32 27.6734 32 26.1226C32 24.5717 30.7383 23.3101 29.1875 23.3101C27.9653 23.3101 26.9232 24.0939 26.5362 25.1851H22.6231C23.8012 23.6612 24.7898 22.0311 25.5985 20.2431H28.9306C29.4484 20.2431 29.8681 19.8234 29.8681 19.3056C29.8681 18.7879 29.4484 18.3681 28.9306 18.3681H26.3553C26.6628 17.5063 26.9096 16.6744 27.118 15.8027ZM29.1875 2.78174C29.7044 2.78174 30.125 3.2023 30.125 3.71924C30.125 4.23618 29.7044 4.65674 29.1875 4.65674C28.6706 4.65674 28.25 4.23618 28.25 3.71924C28.25 3.2023 28.6706 2.78174 29.1875 2.78174ZM2.8125 4.65674C2.29556 4.65674 1.875 4.23618 1.875 3.71924C1.875 3.2023 2.29556 2.78174 2.8125 2.78174C3.32944 2.78174 3.75 3.2023 3.75 3.71924C3.75 4.23618 3.32944 4.65674 2.8125 4.65674ZM2.8125 27.0601C2.29556 27.0601 1.875 26.6395 1.875 26.1226C1.875 25.6056 2.29556 25.1851 2.8125 25.1851C3.32944 25.1851 3.75 25.6056 3.75 26.1226C3.75 26.6395 3.32944 27.0601 2.8125 27.0601ZM29.1875 25.1851C29.7044 25.1851 30.125 25.6056 30.125 26.1226C30.125 26.6395 29.7044 27.0601 29.1875 27.0601C28.6706 27.0601 28.25 26.6395 28.25 26.1226C28.25 25.6056 28.6706 25.1851 29.1875 25.1851ZM15.9998 29.0037C11.6006 25.7856 8.44406 21.5644 6.94944 16.3002C6.11663 13.3669 6.07269 10.9554 6.10775 9.88555C9.29756 8.86905 13.4694 7.1983 16 4.97961C18.5224 7.19105 22.7109 8.87186 25.8936 9.88599C25.9569 11.7287 25.6982 13.9879 25.0731 16.2205C24.0778 19.7749 21.6952 24.83 15.9998 29.0037Z" fill="white"/>
<path d="M20.0143 13.6232V13.0131C20.0143 10.8 18.2138 8.99951 16.0007 8.99951C13.7877 8.99951 11.9872 10.8 11.9872 13.0131V13.6232C11.321 13.8566 10.8418 14.4913 10.8418 15.2361V20.6051C10.8418 21.5473 11.6084 22.3139 12.5506 22.3139H19.4508C20.393 22.3139 21.1596 21.5473 21.1596 20.6051V15.2361C21.1596 14.4913 20.6804 13.8566 20.0143 13.6232ZM16.0007 10.8745C17.1799 10.8745 18.1393 11.8339 18.1393 13.0131V13.5273H13.8622V13.0131C13.8622 11.8339 14.8215 10.8745 16.0007 10.8745ZM19.2846 20.4388H12.7169V15.4023H19.2847V20.4388H19.2846Z" fill="white"/>
<path d="M16 16.6523C15.4822 16.6523 15.0625 17.0721 15.0625 17.5898V18.2514C15.0625 18.7692 15.4822 19.1889 16 19.1889C16.5178 19.1889 16.9375 18.7692 16.9375 18.2514V17.5898C16.9375 17.072 16.5178 16.6523 16 16.6523Z" fill="white"/>
</svg>
